{"title":"OPEN SEASON-2006 AAC-MP4 BY KIDZCORNER","uid":5383920,"size":902747168,"categoryP":"video","categoryS":"movies","magnet":"?xt=urn:btih:e4c67dd5a8183c7ef16a3dde765292f993c3524b&amp;dn=OPEN+SEASON-2006+AAC-MP4+BY+KIDZCORNER&amp;tr=udp%3A%2F%2Ftracker.openbittorrent.com%3A80&amp;tr=udp%3A%2F%2Fopen.demonii.com%3A1337&amp;tr=udp%3A%2F%2Ftracker.coppersurfer.tk%3A6969&amp;tr=udp%3A%2F%2Fexodus.desync.com%3A6969","seeders":0,"leechers":1,"uploader":"alanwatson","files":4,"time":1266831329,"description":"Boyz 'n the Wood\n\nBoog, a domesticated 900lb. Grizzly bear finds himself stranded in the woods 3 days before Open Season. Forced to rely on Elliot, a fast-talking mule deer, the two form an unlikely friendship and must quickly rally other forest animals if they are to create a rag-tag army against the hunters.\n\nFormat : MPEG-4\nFormat profile : Base Media / Version 2\nCodec ID : mp42\nFile size : 859 MiB\nDuration : 1h 11mn\nOverall bit rate : 1 687 Kbps\nEncoded date : UTC 2010-02-21 15:20:32\nTagged date : UTC 2010-02-21 18:41:08\nWriting application : HandBrake 0.9.3 2008112300\n\nVideo\nID : 1\nFormat : AVC\nFormat/Info : Advanced Video Codec\nFormat profile : &lt;a class=&quot;__cf_email__&quot; href=&quot;/cdn-cgi/l/email-protection&quot; data-cfemail=&quot;89c4e8e0e7c9c5bda7b9&quot;&gt;[email&amp;#160;protected]&lt;/a&gt;&lt;script cf-hash='f9e31' type=&quot;text/javascript&quot;&gt;\n/* &lt;![CDATA[ */!function(){try{var t=&quot;currentScript&quot;in document?document.currentScript:function(){for(var t=document.getElementsByTagName(&quot;script&quot;),e=t.length;e--;)if(t[e].getAttribute(&quot;cf-hash&quot;))return t[e]}();if(t&amp;&amp;t.previousSibling){var e,r,n,i,c=t.previousSibling,a=c.getAttribute(&quot;data-cfemail&quot;);if(a){for(e=&quot;&quot;,r=parseInt(a.substr(0,2),16),n=2;a.length-n;n+=2)i=parseInt(a.substr(n,2),16)^r,e+=String.fromCharCode(i);e=document.createTextNode(e),c.parentNode.replaceChild(e,c)}}}catch(u){}}();/* ]]&gt; */&lt;/script&gt;\nFormat settings, CABAC : Yes\nFormat settings, ReFrames : 3 frames\nCodec ID : avc1\nCodec ID/Info : Advanced Video Coding\nDuration : 1h 11mn\nBit rate mode : Variable\nBit rate : 1 362 Kbps\nWidth : 720 pixels\nHeight : 552 pixels\nDisplay aspect ratio : 1.855\nFrame rate mode : Variable\nFrame rate : 25.000 fps\nMinimum frame rate : 12.500 fps\nMaximum frame rate : 25.000 fps\nResolution : 8 bits\nColorimetry : 4:2:0\nScan type : Progressive\nBits/(Pixel*Frame) : 0.137\nStream size : 693 MiB (81%)\nWriting library : x264 core 65\n\nLanguage : English\nEncoded date : UTC 2010-02-21 15:20:32\nTagged date : UTC 2010-02-21 18:41:08\nColor primaries : BT.601-6 525, BT.1358 525, BT.1700 NTSC, SMPTE 170M\nTransfer characteristics : BT.709-5, BT.1361\nMatrix coefficients : BT.601-6 525, BT.1358 525, BT.1700 NTSC, SMPTE 170M\n\nAudio #1\nID : 2\nFormat : AAC\nFormat/Info : Advanced Audio Codec\nFormat version : Version 4\nFormat profile : LC\nFormat settings, SBR : No\nCodec ID : 40\nDuration : 1h 11mn\nBit rate mode : Variable\nBit rate : 160 Kbps\nMaximum bit rate : 208 Kbps\nChannel(s) : 2 channels\nChannel positions : L R\nSampling rate : 48.0 KHz\nStream size : 81.4 MiB (9%)\nLanguage : English\nEncoded date : UTC 2010-02-21 15:20:32\nTagged date : UTC 2010-02-21 18:41:04\n\nAudio #2\nID : 3\nFormat : AAC\nFormat/Info : Advanced Audio Codec\nFormat version : Version 4\nFormat profile : LC\nFormat settings, SBR : No\nCodec ID : 40\nDuration : 1h 11mn\nBit rate mode : Variable\nBit rate : 160 Kbps\nMaximum bit rate : 214 Kbps\nChannel(s) : 2 channels\nChannel positions : L R\nSampling rate : 48.0 KHz\nStream size : 81.4 MiB (9%)\nLanguage : Dutch\nEncoded date : UTC 2010-02-21 15:20:32\nTagged date : UTC 2010-02-21 18:41:04","torrent":{"xt":"urn:btih:e4c67dd5a8183c7ef16a3dde765292f993c3524b","amp;dn":"OPEN+SEASON-2006+AAC-MP4+BY+KIDZCORNER","amp;tr":["udp%3A%2F%2Ftracker.openbittorrent.com%3A80","udp%3A%2F%2Fopen.demonii.com%3A1337","udp%3A%2F%2Ftracker.coppersurfer.tk%3A6969","udp%3A%2F%2Fexodus.desync.com%3A6969"],"infoHash":"e4c67dd5a8183c7ef16a3dde765292f993c3524b","infoHashBuffer":{"type":"Buffer","data":[228,198,125,213,168,24,60,126,241,106,61,222,118,82,146,249,147,195,82,75]},"announce":[],"urlList":[]}}